<?xml version="1.0" encoding="UTF-8"?>
<svg id="Capa_1" xmlns="http://www.w3.org/2000/svg" xmlns:xlink="http://www.w3.org/1999/xlink" version="1.1" viewBox="0 0 841.89 595.28">
  <!-- Generator: Adobe Illustrator 30.0.0, SVG Export Plug-In . SVG Version: 2.1.1 Build 123)  -->
  <defs>
    <style>
      .st0 {
        fill: #003978;
      }

      .st1 {
        fill: #003595;
      }

      .st2 {
        fill: url(#linear-gradient2);
      }

      .st3 {
        fill: url(#linear-gradient1);
      }

      .st4 {
        fill: url(#linear-gradient3);
      }

      .st5 {
        fill: url(#linear-gradient6);
      }

      .st6 {
        fill: url(#linear-gradient7);
      }

      .st7 {
        fill: url(#linear-gradient5);
      }

      .st8 {
        fill: url(#linear-gradient4);
      }

      .st9 {
        fill: url(#linear-gradient);
      }

      .st10 {
        fill: #ffc600;
      }

      .st11 {
        fill: #fff;
      }
    </style>
    <linearGradient id="linear-gradient" x1="478.65" y1="38.97" x2="478.65" y2="124.64" gradientUnits="userSpaceOnUse">
      <stop offset="0" stop-color="#009fe3"/>
      <stop offset=".28" stop-color="#0488ce"/>
      <stop offset=".85" stop-color="#114d99"/>
      <stop offset="1" stop-color="#153d8a"/>
    </linearGradient>
    <linearGradient id="linear-gradient1" x1="550.09" x2="550.09" xlink:href="#linear-gradient"/>
    <linearGradient id="linear-gradient2" x1="615.44" x2="615.44" xlink:href="#linear-gradient"/>
    <linearGradient id="linear-gradient3" x1="686.7" y1="38.97" x2="686.7" y2="124.64" xlink:href="#linear-gradient"/>
    <linearGradient id="linear-gradient4" x1="478.64" y1="359.91" x2="478.64" y2="477.75" xlink:href="#linear-gradient"/>
    <linearGradient id="linear-gradient5" x1="550.08" y1="359.91" x2="550.08" y2="477.75" xlink:href="#linear-gradient"/>
    <linearGradient id="linear-gradient6" x1="615.44" y1="359.91" x2="615.44" y2="477.75" xlink:href="#linear-gradient"/>
    <linearGradient id="linear-gradient7" x1="686.7" y1="359.91" x2="686.7" y2="477.75" xlink:href="#linear-gradient"/>
  </defs>
  <rect class="st0" x=".66" y="271.73" width="841.89" height="287.64"/>
  <g>
    <g>
      <path class="st1" d="M135.56,173.26h-1.8c-3.44,0-5.37-1.38-6.49-3.14-.39-.6-.6-1.03-.6-1.25,0-.17.04-.26.21-.34l2.19-1.12c.22-.13.6-.34.77-.34.13,0,.26.09.34.3.73,1.59,2.15,2.45,3.57,2.45h1.8c2.11,0,3.87-1.76,3.87-3.87,0-2.71-2.49-3.82-5.2-5.07-3.35-1.5-7.09-3.22-7.09-8.25,0-4.3,3.01-7.3,7.73-7.3h.69c3.44,0,5.37,1.42,6.53,3.14.26.39.6.95.6,1.16,0,.17-.09.3-.26.39l-2.32,1.16c-.26.13-.47.26-.64.26-.13,0-.26-.09-.34-.26-.77-1.55-2.15-2.41-3.57-2.41h-.69c-2.11,0-3.87,1.76-3.87,3.87,0,2.49,2.71,3.44,5.59,4.77,3.22,1.46,6.7,3.44,6.7,8.55,0,4.3-3.01,7.31-7.74,7.31Z"/>
      <path class="st1" d="M163.92,172.83h-14.61c-.3,0-.43-.13-.43-.43v-26.21c0-.3.13-.43.43-.43h14.61c.3,0,.43.13.43.43v2.58c0,.3-.13.43-.43.43h-10.74c-.3,0-.43.13-.43.43v7.3c0,.3.13.43.43.43h8.81c.3,0,.43.13.43.43v2.58c0,.3-.13.43-.43.43h-8.81c-.3,0-.43.13-.43.43v7.73c0,.3.13.43.43.43h10.74c.3,0,.43.13.43.43v2.58c0,.3-.13.43-.43.43Z"/>
      <path class="st1" d="M186.74,172.83h-3.31c-.17,0-.34-.13-.39-.3l-4-11.47c-.04-.17-.17-.26-.34-.26h-4.25c-.3,0-.43.13-.43.43v11.17c0,.3-.13.43-.43.43h-3.01c-.3,0-.43-.13-.43-.43v-26.21c0-.3.13-.43.43-.43h8.59c4.73,0,7.73,3.01,7.73,7.73v.43c0,2.32-2.06,5.03-3.74,5.8-.17.09-.26.17-.26.34,0,.13.17.56.34,1.03l3.57,10.31c.17.51.34.9.34,1.07,0,.21-.13.34-.43.34ZM183.04,153.07c0-2.11-1.76-3.87-3.87-3.87h-4.73c-.3,0-.43.13-.43.43v7.3c0,.3.13.43.43.43h4.73c2.11,0,3.87-1.76,3.87-3.87v-.43Z"/>
      <path class="st1" d="M208.57,146.88l-7.82,25.65c-.04.21-.22.3-.43.3h-2.32c-.22,0-.39-.09-.43-.3l-7.69-25.22c-.22-.69-.34-1.03-.34-1.2,0-.22.17-.34.47-.34h3.22c.22,0,.39.09.43.3l4.94,17.92c.09.3.34,1.42.43,1.76h.22c.09-.34.34-1.42.43-1.72l4.98-17.96c.04-.21.22-.3.43-.3h3.22c.3,0,.47.13.47.34,0,.13-.13.47-.21.77Z"/>
      <path class="st1" d="M216.14,172.83h-3.01c-.3,0-.43-.13-.43-.43v-26.21c0-.3.13-.43.43-.43h3.01c.3,0,.43.13.43.43v26.21c0,.3-.13.43-.43.43Z"/>
      <path class="st1" d="M238.27,170.51c-1.2,1.55-3.05,2.75-6.23,2.75h-1.29c-4.73,0-7.73-3.01-7.73-7.31v-13.32c0-4.3,3.01-7.3,7.73-7.3h1.29c3.05,0,4.9,1.12,6.1,2.58.6.77,1.03,1.55,1.03,1.72s-.09.3-.26.39l-2.23,1.12c-.26.13-.56.3-.73.3-.13,0-.26-.09-.34-.26-.77-1.55-2.15-2.41-3.57-2.41h-1.29c-2.11,0-3.87,1.76-3.87,3.87v13.32c0,2.11,1.76,3.87,3.87,3.87h1.29c1.46,0,2.79-.86,3.61-2.49.09-.17.21-.26.34-.26.17,0,.39.17.69.3l2.28,1.16c.17.09.26.17.26.3,0,.21-.39.95-.95,1.68Z"/>
      <path class="st1" d="M247.73,172.83h-3.01c-.3,0-.43-.13-.43-.43v-26.21c0-.3.13-.43.43-.43h3.01c.3,0,.43.13.43.43v26.21c0,.3-.13.43-.43.43Z"/>
      <path class="st1" d="M263.63,173.26h-1.29c-4.73,0-7.73-3.01-7.73-7.31v-13.32c0-4.3,3.01-7.3,7.73-7.3h1.29c4.73,0,7.74,3.01,7.74,7.3v13.32c0,4.3-3.01,7.31-7.74,7.31ZM267.49,152.64c0-2.11-1.76-3.87-3.87-3.87h-1.29c-2.11,0-3.87,1.76-3.87,3.87v13.32c0,2.11,1.76,3.87,3.87,3.87h1.29c2.11,0,3.87-1.76,3.87-3.87v-13.32Z"/>
      <path class="st1" d="M285.07,173.26h-1.8c-3.44,0-5.37-1.38-6.49-3.14-.39-.6-.6-1.03-.6-1.25,0-.17.04-.26.21-.34l2.19-1.12c.22-.13.6-.34.77-.34.13,0,.26.09.34.3.73,1.59,2.15,2.45,3.57,2.45h1.8c2.11,0,3.87-1.76,3.87-3.87,0-2.71-2.49-3.82-5.2-5.07-3.35-1.5-7.09-3.22-7.09-8.25,0-4.3,3.01-7.3,7.73-7.3h.69c3.44,0,5.37,1.42,6.53,3.14.26.39.6.95.6,1.16,0,.17-.09.3-.26.39l-2.32,1.16c-.26.13-.47.26-.64.26-.13,0-.26-.09-.34-.26-.77-1.55-2.15-2.41-3.57-2.41h-.69c-2.11,0-3.87,1.76-3.87,3.87,0,2.49,2.71,3.44,5.59,4.77,3.22,1.46,6.7,3.44,6.7,8.55,0,4.3-3.01,7.31-7.73,7.31Z"/>
      <path class="st1" d="M331.44,172.83h-3.22c-.22,0-.39-.09-.43-.3l-1.59-5.67c-.04-.22-.22-.26-.43-.26h-6.96c-.22,0-.39.04-.43.26l-1.59,5.67c-.04.21-.22.3-.43.3h-3.22c-.3,0-.47-.13-.47-.34,0-.17.22-.82.43-1.46l7.61-24.97c.04-.21.21-.3.43-.3h2.32c.21,0,.39.09.43.3l7.65,25.1c.17.52.39,1.16.39,1.33,0,.21-.17.34-.47.34ZM324.74,161.79l-1.85-7.26c-.09-.34-.43-1.55-.52-1.89h-.17c-.09.34-.43,1.63-.52,1.93l-1.85,7.05c-.13.52-.3.95-.3,1.16s.17.39.47.39h4.51c.3,0,.47-.17.47-.39,0-.17-.13-.52-.26-.99Z"/>
      <path class="st1" d="M344.64,172.83h-8.59c-.3,0-.43-.13-.43-.43v-26.21c0-.3.13-.43.43-.43h8.59c4.73,0,7.73,3.01,7.73,7.73v11.6c0,4.77-3.01,7.73-7.73,7.73ZM348.51,153.07c0-2.11-1.76-3.87-3.87-3.87h-4.73c-.3,0-.43.13-.43.43v19.34c0,.3.13.43.43.43h4.73c2.11,0,3.87-1.76,3.87-3.87v-12.46Z"/>
      <path class="st1" d="M366.98,173.26h-1.29c-4.73,0-7.73-3.01-7.73-7.31v-19.77c0-.3.13-.43.43-.43h3.01c.3,0,.43.13.43.43v19.77c0,2.11,1.76,3.87,3.87,3.87h1.29c2.11,0,3.87-1.76,3.87-3.87v-19.77c0-.3.13-.43.43-.43h3.01c.3,0,.43.13.43.43v19.77c0,4.3-3.01,7.31-7.74,7.31Z"/>
      <path class="st1" d="M396.55,172.83h-3.22c-.22,0-.39-.09-.43-.3l-1.59-5.67c-.04-.22-.21-.26-.43-.26h-6.96c-.22,0-.39.04-.43.26l-1.59,5.67c-.04.21-.21.3-.43.3h-3.22c-.3,0-.47-.13-.47-.34,0-.17.22-.82.43-1.46l7.61-24.97c.04-.21.22-.3.43-.3h2.32c.22,0,.39.09.43.3l7.65,25.1c.17.52.39,1.16.39,1.33,0,.21-.17.34-.47.34ZM389.85,161.79l-1.85-7.26c-.09-.34-.43-1.55-.52-1.89h-.17c-.09.34-.43,1.63-.52,1.93l-1.85,7.05c-.13.52-.3.95-.3,1.16s.17.39.47.39h4.51c.3,0,.47-.17.47-.39,0-.17-.13-.52-.26-.99Z"/>
      <path class="st1" d="M417.7,172.83h-2.75c-.17,0-.3-.09-.39-.22l-9.15-16.63c-.17-.3-.65-1.2-.77-1.55l-.17.04c.09,1.03.13,6.57.13,9.97v7.95c0,.3-.13.43-.43.43h-3.01c-.3,0-.43-.13-.43-.43v-26.21c0-.3.13-.43.43-.43h2.75c.17,0,.3.09.38.22l9.15,16.67c.13.22.64,1.2.77,1.55l.17-.04c-.09-1.03-.13-6.57-.13-9.97v-7.99c0-.3.13-.43.43-.43h3.01c.3,0,.43.13.43.43v26.21c0,.3-.13.43-.43.43Z"/>
      <path class="st1" d="M440.05,172.83h-14.61c-.3,0-.43-.13-.43-.43v-26.21c0-.3.13-.43.43-.43h14.61c.3,0,.43.13.43.43v2.58c0,.3-.13.43-.43.43h-10.74c-.3,0-.43.13-.43.43v7.3c0,.3.13.43.43.43h8.81c.3,0,.43.13.43.43v2.58c0,.3-.13.43-.43.43h-8.81c-.3,0-.43.13-.43.43v7.73c0,.3.13.43.43.43h10.74c.3,0,.43.13.43.43v2.58c0,.3-.13.43-.43.43Z"/>
      <path class="st1" d="M462.65,172.83h-3.31c-.17,0-.34-.13-.39-.3l-4-11.47c-.04-.17-.17-.26-.34-.26h-4.26c-.3,0-.43.13-.43.43v11.17c0,.3-.13.43-.43.43h-3.01c-.3,0-.43-.13-.43-.43v-26.21c0-.3.13-.43.43-.43h8.6c4.72,0,7.73,3.01,7.73,7.73v.43c0,2.32-2.06,5.03-3.74,5.8-.17.09-.26.17-.26.34,0,.13.17.56.34,1.03l3.57,10.31c.17.51.34.9.34,1.07,0,.21-.13.34-.43.34ZM458.96,153.07c0-2.11-1.76-3.87-3.87-3.87h-4.73c-.3,0-.43.13-.43.43v7.3c0,.3.13.43.43.43h4.73c2.1,0,3.87-1.76,3.87-3.87v-.43Z"/>
      <path class="st1" d="M476.79,173.26h-1.29c-4.73,0-7.73-3.01-7.73-7.31v-13.32c0-4.3,3.01-7.3,7.73-7.3h1.29c4.73,0,7.73,3.01,7.73,7.3v13.32c0,4.3-3.01,7.31-7.73,7.31ZM480.66,152.64c0-2.11-1.76-3.87-3.87-3.87h-1.29c-2.1,0-3.87,1.76-3.87,3.87v13.32c0,2.11,1.76,3.87,3.87,3.87h1.29c2.11,0,3.87-1.76,3.87-3.87v-13.32Z"/>
      <path class="st1" d="M498.02,173.26h-1.8c-3.44,0-5.37-1.38-6.49-3.14-.39-.6-.6-1.03-.6-1.25,0-.17.04-.26.21-.34l2.19-1.12c.22-.13.6-.34.78-.34.13,0,.26.09.34.3.73,1.59,2.15,2.45,3.57,2.45h1.8c2.11,0,3.87-1.76,3.87-3.87,0-2.71-2.49-3.82-5.2-5.07-3.35-1.5-7.09-3.22-7.09-8.25,0-4.3,3.01-7.3,7.73-7.3h.69c3.44,0,5.37,1.42,6.53,3.14.26.39.6.95.6,1.16,0,.17-.09.3-.26.39l-2.32,1.16c-.26.13-.47.26-.64.26-.13,0-.26-.09-.34-.26-.77-1.55-2.15-2.41-3.57-2.41h-.69c-2.11,0-3.87,1.76-3.87,3.87,0,2.49,2.71,3.44,5.59,4.77,3.22,1.46,6.7,3.44,6.7,8.55,0,4.3-3.01,7.31-7.73,7.31Z"/>
      <path class="st1" d="M527.72,172.83h-3.01c-.3,0-.43-.13-.43-.43v-26.21c0-.3.13-.43.43-.43h3.01c.3,0,.43.13.43.43v26.21c0,.3-.13.43-.43.43Z"/>
      <path class="st1" d="M552,172.83h-2.75c-.17,0-.3-.09-.39-.22l-9.15-16.63c-.17-.3-.64-1.2-.77-1.55l-.17.04c.09,1.03.13,6.57.13,9.97v7.95c0,.3-.13.43-.43.43h-3.01c-.3,0-.43-.13-.43-.43v-26.21c0-.3.13-.43.43-.43h2.75c.17,0,.3.09.39.22l9.15,16.67c.13.22.65,1.2.77,1.55l.17-.04c-.09-1.03-.13-6.57-.13-9.97v-7.99c0-.3.13-.43.43-.43h3.01c.3,0,.43.13.43.43v26.21c0,.3-.13.43-.43.43Z"/>
      <path class="st1" d="M571.99,149.2h-4.94c-.3,0-.43.13-.43.43v22.78c0,.3-.13.43-.43.43h-3.01c-.3,0-.43-.13-.43-.43v-22.78c0-.3-.13-.43-.43-.43h-4.94c-.3,0-.43-.13-.43-.43v-2.58c0-.3.13-.43.43-.43h14.61c.3,0,.43.13.43.43v2.58c0,.3-.13.43-.43.43Z"/>
      <path class="st1" d="M591.11,172.83h-14.61c-.3,0-.43-.13-.43-.43v-26.21c0-.3.13-.43.43-.43h14.61c.3,0,.43.13.43.43v2.58c0,.3-.13.43-.43.43h-10.74c-.3,0-.43.13-.43.43v7.3c0,.3.13.43.43.43h8.81c.3,0,.43.13.43.43v2.58c0,.3-.13.43-.43.43h-8.81c-.3,0-.43.13-.43.43v7.73c0,.3.13.43.43.43h10.74c.3,0,.43.13.43.43v2.58c0,.3-.13.43-.43.43Z"/>
      <path class="st1" d="M613.16,150.02l-2.23,1.12c-.26.13-.56.3-.73.3-.13,0-.26-.09-.35-.26-.77-1.55-2.15-2.41-3.56-2.41h-2.06c-2.11,0-3.87,1.76-3.87,3.87v13.32c0,2.11,1.76,3.87,3.87,3.87h1.29c2.11,0,3.87-1.76,3.87-3.87v-2.79c0-.3-.13-.43-.43-.43h-4.3c-.3,0-.43-.13-.43-.43v-2.58c0-.3.13-.43.43-.43h8.16c.3,0,.43.13.43.43v6.23c0,4.3-3.01,7.31-7.74,7.31h-1.29c-4.73,0-7.73-3.01-7.73-7.31v-13.32c0-4.3,3.01-7.3,7.73-7.3h2.06c3.05,0,4.9,1.12,6.1,2.58.6.77,1.03,1.55,1.03,1.72s-.09.3-.26.39Z"/>
      <path class="st1" d="M636.06,172.83h-3.31c-.17,0-.34-.13-.39-.3l-4-11.47c-.04-.17-.17-.26-.34-.26h-4.26c-.3,0-.43.13-.43.43v11.17c0,.3-.13.43-.43.43h-3.01c-.3,0-.43-.13-.43-.43v-26.21c0-.3.13-.43.43-.43h8.6c4.72,0,7.73,3.01,7.73,7.73v.43c0,2.32-2.06,5.03-3.74,5.8-.17.09-.26.17-.26.34,0,.13.17.56.34,1.03l3.57,10.31c.17.51.34.9.34,1.07,0,.21-.13.34-.43.34ZM632.37,153.07c0-2.11-1.76-3.87-3.87-3.87h-4.73c-.3,0-.43.13-.43.43v7.3c0,.3.13.43.43.43h4.73c2.1,0,3.87-1.76,3.87-3.87v-.43Z"/>
      <path class="st1" d="M657.42,172.83h-3.22c-.21,0-.39-.09-.43-.3l-1.59-5.67c-.04-.22-.22-.26-.43-.26h-6.96c-.22,0-.39.04-.43.26l-1.59,5.67c-.04.21-.21.3-.43.3h-3.22c-.3,0-.47-.13-.47-.34,0-.17.21-.82.43-1.46l7.61-24.97c.04-.21.22-.3.43-.3h2.32c.22,0,.39.09.43.3l7.65,25.1c.17.52.39,1.16.39,1.33,0,.21-.17.34-.47.34ZM650.72,161.79l-1.85-7.26c-.09-.34-.43-1.55-.52-1.89h-.17c-.09.34-.43,1.63-.52,1.93l-1.85,7.05c-.13.52-.3.95-.3,1.16s.18.39.47.39h4.51c.3,0,.47-.17.47-.39,0-.17-.13-.52-.26-.99Z"/>
      <path class="st1" d="M676.63,172.83h-14.61c-.3,0-.43-.13-.43-.43v-26.21c0-.3.13-.43.43-.43h3.01c.3,0,.43.13.43.43v22.78c0,.3.13.43.43.43h10.74c.3,0,.43.13.43.43v2.58c0,.3-.13.43-.43.43Z"/>
      <path class="st1" d="M695.76,172.83h-14.61c-.3,0-.43-.13-.43-.43v-26.21c0-.3.13-.43.43-.43h14.61c.3,0,.43.13.43.43v2.58c0,.3-.13.43-.43.43h-10.75c-.3,0-.43.13-.43.43v7.3c0,.3.13.43.43.43h8.81c.3,0,.43.13.43.43v2.58c0,.3-.13.43-.43.43h-8.81c-.3,0-.43.13-.43.43v7.73c0,.3.13.43.43.43h10.75c.3,0,.43.13.43.43v2.58c0,.3-.13.43-.43.43Z"/>
      <path class="st1" d="M709.04,173.26h-1.8c-3.44,0-5.37-1.38-6.49-3.14-.39-.6-.6-1.03-.6-1.25,0-.17.04-.26.22-.34l2.19-1.12c.22-.13.6-.34.77-.34.13,0,.26.09.34.3.73,1.59,2.15,2.45,3.57,2.45h1.8c2.11,0,3.87-1.76,3.87-3.87,0-2.71-2.49-3.82-5.2-5.07-3.35-1.5-7.09-3.22-7.09-8.25,0-4.3,3.01-7.3,7.73-7.3h.69c3.44,0,5.37,1.42,6.53,3.14.26.39.6.95.6,1.16,0,.17-.09.3-.26.39l-2.32,1.16c-.26.13-.47.26-.64.26-.13,0-.26-.09-.34-.26-.77-1.55-2.15-2.41-3.57-2.41h-.69c-2.11,0-3.87,1.76-3.87,3.87,0,2.49,2.71,3.44,5.59,4.77,3.22,1.46,6.71,3.44,6.71,8.55,0,4.3-3.01,7.31-7.74,7.31Z"/>
    </g>
    <g>
      <g>
        <path class="st9" d="M501.92,39.18c-.54,0-.93.26-1.2.79l-20.2,47.75c-.67,1.6-1.47,3.89-1.75,5.35h-.38c-.28-1.46-1.08-4.15-1.62-5.35l-20.19-47.75c-.27-.53-.66-.79-1.2-.79h-8.55c-.74,0-1.34.6-1.34,1.34v81.42c0,.82.67,1.49,1.49,1.49h9.04c.83,0,1.5-.68,1.49-1.51-.16-8.61-.94-51.23-1.19-54.13l.55-.13c.53,2,1.86,6.41,3.2,9.35l15.1,33.57c.27.55.67.82,1.2.82h4.57c.52,0,.92-.27,1.2-.82l15.1-33.57c1.34-3.07,2.68-7.35,3.21-9.35l.55.13c-.27,3.23-1.2,20.47-1.2,31.03v23.28c0,.93.37,1.33,1.34,1.33h9.36c.73,0,1.33-.6,1.33-1.33V40.52c0-.95-.41-1.34-1.33-1.34h-8.56Z"/>
        <path class="st3" d="M527.35,39.18c-.94,0-1.35.39-1.35,1.34v81.58c0,.93.41,1.33,1.35,1.33h45.46c.94,0,1.35-.4,1.35-1.33v-8.03c0-.94-.41-1.35-1.35-1.35h-33.43c-.94,0-1.32-.39-1.32-1.32v-24.06c0-.96.38-1.35,1.32-1.35h27.41c.93,0,1.34-.4,1.34-1.33v-8.02c0-.96-.41-1.34-1.34-1.34h-27.41c-.94,0-1.32-.4-1.32-1.35v-22.73c0-.94.38-1.34,1.32-1.34h33.43c.94,0,1.35-.41,1.35-1.34v-8.02c0-.95-.41-1.34-1.35-1.34h-45.46Z"/>
        <path class="st2" d="M631.81,39.18c-.91,0-1.32.39-1.32,1.34v24.88c0,10.55.15,27.81.41,31.02l-.55.13c-.41-1.07-1.99-4.15-2.4-4.81l-28.5-51.9c-.26-.39-.65-.66-1.2-.66h-8.56c-.93,0-1.34.39-1.34,1.34v81.58c0,.93.41,1.33,1.34,1.33h9.35c.96,0,1.35-.4,1.35-1.33v-24.74c0-10.56-.14-27.82-.4-31.03l.52-.13c.4,1.08,1.88,3.87,2.41,4.82l28.49,51.74c.27.4.67.67,1.21.67h8.55c.94,0,1.34-.4,1.34-1.33V40.52c0-.95-.4-1.34-1.34-1.34h-9.38Z"/>
        <path class="st4" d="M658.57,122.94l20.47-34.33c.05-.08.08-.17.11-.26l5.74-21.78c.24-.93,1.33-4.94,1.58-6.01h.53c.28,1.07,1.35,4.8,1.62,5.88l10.27,38.36,4.96,17.65c.14.66.68.94,1.34.94h10.03c.93,0,1.47-.41,1.47-1.09,0-.53-.67-2.53-1.2-4.13l-23.81-78.07c-.13-.66-.66-.93-1.32-.93h-7.23c-.67,0-1.21.26-1.33.93l-25.04,82.04c-.34,1.12,1.2,1.81,1.81.8Z"/>
      </g>
      <g>
        <path class="st1" d="M173.26,123.43h-45.48c-.94,0-1.34-.4-1.34-1.33V40.52c0-.95.39-1.34,1.34-1.34h9.36c.94,0,1.34.39,1.34,1.34v70.88c0,.93.4,1.32,1.35,1.32h33.43c.93,0,1.32.41,1.32,1.36v8.02c0,.93-.39,1.33-1.32,1.33"/>
        <path class="st1" d="M216.85,124.77h-4.02c-14.71,0-24.06-9.36-24.06-22.74v-41.45c0-13.37,9.36-22.74,24.06-22.74h4.02c14.69,0,24.06,9.37,24.06,22.74v41.45c0,13.38-9.36,22.74-24.06,22.74M228.86,60.58c0-6.57-5.47-12.05-12.02-12.05h-4.02c-6.56,0-12.04,5.47-12.04,12.05v41.45c0,6.55,5.49,12.04,12.04,12.04h4.02c6.54,0,12.02-5.49,12.02-12.04v-41.45Z"/>
        <path class="st1" d="M283.17,85.98h-14.71c-.93,0-1.34.4-1.34,1.35v34.76c0,.93-.41,1.33-1.32,1.33h-9.37c-.95,0-1.34-.4-1.34-1.33V40.52c0-.95.39-1.34,1.34-1.34h26.74c14.71,0,24.06,9.49,24.06,24.06,0,12.97-9.36,22.74-24.06,22.74M295.21,61.91c0-6.55-5.5-12.03-12.05-12.03h-14.71c-.93,0-1.34.4-1.34,1.34v22.73c0,.94.4,1.35,1.34,1.35h14.71c6.55,0,12.05-5.49,12.05-12.05v-1.33Z"/>
        <path class="st1" d="M368.32,123.43h-45.48c-.93,0-1.32-.4-1.32-1.33V40.52c0-.95.39-1.34,1.32-1.34h45.48c.93,0,1.33.39,1.33,1.34v8.02c0,.93-.4,1.34-1.33,1.34h-33.44c-.94,0-1.34.4-1.34,1.34v22.73c0,.94.39,1.35,1.34,1.35h27.41c.94,0,1.35.39,1.35,1.34v8.02c0,.93-.41,1.33-1.35,1.33h-27.41c-.94,0-1.34.4-1.34,1.35v24.06c0,.93.39,1.32,1.34,1.32h33.44c.93,0,1.33.41,1.33,1.36v8.02c0,.93-.4,1.33-1.33,1.33"/>
        <path class="st1" d="M431.29,122.15c0,.7-.57,1.28-1.28,1.28h-47c-.94,0-1.34-.4-1.34-1.07,0-.54.52-1.61,1.2-3.2l29.43-65.67c.52-1.08.92-2.03.92-2.55,0-.66-.4-1.06-1.32-1.06h-26.75c-.74,0-1.34-.6-1.34-1.34v-8.02c0-.74.6-1.34,1.34-1.34h44.8c.94,0,1.34.39,1.34,1.06s-.53,1.74-1.21,3.22l-29.41,65.26c-.67,1.62-1.08,2.27-1.08,2.94s.41,1.06,1.34,1.06h29.08c.7,0,1.28.57,1.28,1.28v8.16Z"/>
      </g>
      <polygon class="st10" points="670.63 122.56 706.91 89.06 680.12 89.06 670.63 122.56"/>
    </g>
  </g>
  <g>
    <g>
      <path class="st11" d="M135.56,483.26h-1.81c-3.44,0-5.37-1.38-6.49-3.14-.39-.6-.6-1.03-.6-1.25,0-.17.04-.26.21-.34l2.19-1.12c.22-.13.6-.34.77-.34.13,0,.26.09.34.3.73,1.59,2.15,2.45,3.57,2.45h1.81c2.11,0,3.87-1.76,3.87-3.87,0-2.71-2.49-3.83-5.2-5.07-3.35-1.5-7.09-3.22-7.09-8.25,0-4.3,3.01-7.31,7.74-7.31h.69c3.44,0,5.37,1.42,6.53,3.14.26.39.6.95.6,1.16,0,.17-.09.3-.26.39l-2.32,1.16c-.26.13-.47.26-.64.26-.13,0-.26-.09-.34-.26-.77-1.55-2.15-2.41-3.57-2.41h-.69c-2.11,0-3.87,1.76-3.87,3.87,0,2.49,2.71,3.44,5.59,4.77,3.22,1.46,6.7,3.44,6.7,8.55,0,4.3-3.01,7.31-7.74,7.31Z"/>
      <path class="st11" d="M163.92,482.83h-14.61c-.3,0-.43-.13-.43-.43v-26.22c0-.3.13-.43.43-.43h14.61c.3,0,.43.13.43.43v2.58c0,.3-.13.43-.43.43h-10.75c-.3,0-.43.13-.43.43v7.31c0,.3.13.43.43.43h8.81c.3,0,.43.13.43.43v2.58c0,.3-.13.43-.43.43h-8.81c-.3,0-.43.13-.43.43v7.74c0,.3.13.43.43.43h10.75c.3,0,.43.13.43.43v2.58c0,.3-.13.43-.43.43Z"/>
      <path class="st11" d="M186.74,482.83h-3.31c-.17,0-.34-.13-.39-.3l-4-11.48c-.04-.17-.17-.26-.34-.26h-4.26c-.3,0-.43.13-.43.43v11.18c0,.3-.13.43-.43.43h-3.01c-.3,0-.43-.13-.43-.43v-26.22c0-.3.13-.43.43-.43h8.6c4.73,0,7.74,3.01,7.74,7.74v.43c0,2.32-2.06,5.03-3.74,5.8-.17.09-.26.17-.26.34,0,.13.17.56.34,1.03l3.57,10.32c.17.52.34.9.34,1.07,0,.21-.13.34-.43.34ZM183.05,463.06c0-2.11-1.76-3.87-3.87-3.87h-4.73c-.3,0-.43.13-.43.43v7.31c0,.3.13.43.43.43h4.73c2.11,0,3.87-1.76,3.87-3.87v-.43Z"/>
      <path class="st11" d="M208.58,456.87l-7.82,25.66c-.04.22-.21.3-.43.3h-2.32c-.21,0-.39-.09-.43-.3l-7.69-25.23c-.21-.69-.34-1.03-.34-1.2,0-.21.17-.34.47-.34h3.22c.21,0,.39.09.43.3l4.94,17.92c.09.3.34,1.42.43,1.76h.21c.09-.34.34-1.42.43-1.72l4.99-17.97c.04-.21.21-.3.43-.3h3.22c.3,0,.47.13.47.34,0,.13-.13.47-.21.77Z"/>
      <path class="st11" d="M216.14,482.83h-3.01c-.3,0-.43-.13-.43-.43v-26.22c0-.3.13-.43.43-.43h3.01c.3,0,.43.13.43.43v26.22c0,.3-.13.43-.43.43Z"/>
      <path class="st11" d="M238.27,480.51c-1.2,1.55-3.05,2.75-6.23,2.75h-1.29c-4.73,0-7.74-3.01-7.74-7.31v-13.32c0-4.3,3.01-7.31,7.74-7.31h1.29c3.05,0,4.9,1.12,6.1,2.58.6.77,1.03,1.55,1.03,1.72s-.09.3-.26.39l-2.24,1.12c-.26.13-.56.3-.73.3-.13,0-.26-.09-.34-.26-.77-1.55-2.15-2.41-3.57-2.41h-1.29c-2.11,0-3.87,1.76-3.87,3.87v13.32c0,2.11,1.76,3.87,3.87,3.87h1.29c1.46,0,2.79-.86,3.61-2.49.09-.17.21-.26.34-.26.17,0,.39.17.69.3l2.28,1.16c.17.09.26.17.26.3,0,.21-.39.95-.95,1.68Z"/>
      <path class="st11" d="M247.73,482.83h-3.01c-.3,0-.43-.13-.43-.43v-26.22c0-.3.13-.43.43-.43h3.01c.3,0,.43.13.43.43v26.22c0,.3-.13.43-.43.43Z"/>
      <path class="st11" d="M263.63,483.26h-1.29c-4.73,0-7.74-3.01-7.74-7.31v-13.32c0-4.3,3.01-7.31,7.74-7.31h1.29c4.73,0,7.74,3.01,7.74,7.31v13.32c0,4.3-3.01,7.31-7.74,7.31ZM267.5,462.63c0-2.11-1.76-3.87-3.87-3.87h-1.29c-2.11,0-3.87,1.76-3.87,3.87v13.32c0,2.11,1.76,3.87,3.87,3.87h1.29c2.11,0,3.87-1.76,3.87-3.87v-13.32Z"/>
      <path class="st11" d="M285.07,483.26h-1.81c-3.44,0-5.37-1.38-6.49-3.14-.39-.6-.6-1.03-.6-1.25,0-.17.04-.26.21-.34l2.19-1.12c.21-.13.6-.34.77-.34.13,0,.26.09.34.3.73,1.59,2.15,2.45,3.57,2.45h1.81c2.11,0,3.87-1.76,3.87-3.87,0-2.71-2.49-3.83-5.2-5.07-3.35-1.5-7.09-3.22-7.09-8.25,0-4.3,3.01-7.31,7.74-7.31h.69c3.44,0,5.37,1.42,6.53,3.14.26.39.6.95.6,1.16,0,.17-.09.3-.26.39l-2.32,1.16c-.26.13-.47.26-.64.26-.13,0-.26-.09-.34-.26-.77-1.55-2.15-2.41-3.57-2.41h-.69c-2.11,0-3.87,1.76-3.87,3.87,0,2.49,2.71,3.44,5.59,4.77,3.22,1.46,6.7,3.44,6.7,8.55,0,4.3-3.01,7.31-7.74,7.31Z"/>
      <path class="st11" d="M331.45,482.83h-3.22c-.21,0-.39-.09-.43-.3l-1.59-5.67c-.04-.21-.21-.26-.43-.26h-6.96c-.21,0-.39.04-.43.26l-1.59,5.67c-.04.22-.21.3-.43.3h-3.22c-.3,0-.47-.13-.47-.34,0-.17.21-.82.43-1.46l7.61-24.97c.04-.21.21-.3.43-.3h2.32c.21,0,.39.09.43.3l7.65,25.1c.17.52.39,1.16.39,1.33,0,.21-.17.34-.47.34ZM324.74,471.79l-1.85-7.26c-.09-.34-.43-1.55-.52-1.89h-.17c-.09.34-.43,1.63-.52,1.93l-1.85,7.05c-.13.52-.3.95-.3,1.16s.17.39.47.39h4.51c.3,0,.47-.17.47-.39,0-.17-.13-.52-.26-.99Z"/>
      <path class="st11" d="M344.64,482.83h-8.6c-.3,0-.43-.13-.43-.43v-26.22c0-.3.13-.43.43-.43h8.6c4.73,0,7.74,3.01,7.74,7.74v11.6c0,4.77-3.01,7.74-7.74,7.74ZM348.51,463.06c0-2.11-1.76-3.87-3.87-3.87h-4.73c-.3,0-.43.13-.43.43v19.34c0,.3.13.43.43.43h4.73c2.11,0,3.87-1.76,3.87-3.87v-12.46Z"/>
      <path class="st11" d="M366.99,483.26h-1.29c-4.73,0-7.74-3.01-7.74-7.31v-19.77c0-.3.13-.43.43-.43h3.01c.3,0,.43.13.43.43v19.77c0,2.11,1.76,3.87,3.87,3.87h1.29c2.11,0,3.87-1.76,3.87-3.87v-19.77c0-.3.13-.43.43-.43h3.01c.3,0,.43.13.43.43v19.77c0,4.3-3.01,7.31-7.74,7.31Z"/>
      <path class="st11" d="M396.56,482.83h-3.22c-.21,0-.39-.09-.43-.3l-1.59-5.67c-.04-.21-.21-.26-.43-.26h-6.96c-.21,0-.39.04-.43.26l-1.59,5.67c-.04.22-.22.3-.43.3h-3.22c-.3,0-.47-.13-.47-.34,0-.17.21-.82.43-1.46l7.61-24.97c.04-.21.21-.3.43-.3h2.32c.21,0,.39.09.43.3l7.65,25.1c.17.52.39,1.16.39,1.33,0,.21-.17.34-.47.34ZM389.85,471.79l-1.85-7.26c-.09-.34-.43-1.55-.52-1.89h-.17c-.09.34-.43,1.63-.52,1.93l-1.85,7.05c-.13.52-.3.95-.3,1.16s.17.39.47.39h4.51c.3,0,.47-.17.47-.39,0-.17-.13-.52-.26-.99Z"/>
      <path class="st11" d="M417.7,482.83h-2.75c-.17,0-.3-.09-.39-.21l-9.15-16.63c-.17-.3-.64-1.2-.77-1.55l-.17.04c.09,1.03.13,6.58.13,9.97v7.95c0,.3-.13.43-.43.43h-3.01c-.3,0-.43-.13-.43-.43v-26.22c0-.3.13-.43.43-.43h2.75c.17,0,.3.09.39.21l9.15,16.68c.13.22.64,1.2.77,1.55l.17-.04c-.09-1.03-.13-6.58-.13-9.97v-7.99c0-.3.13-.43.43-.43h3.01c.3,0,.43.13.43.43v26.22c0,.3-.13.43-.43.43Z"/>
      <path class="st11" d="M440.05,482.83h-14.61c-.3,0-.43-.13-.43-.43v-26.22c0-.3.13-.43.43-.43h14.61c.3,0,.43.13.43.43v2.58c0,.3-.13.43-.43.43h-10.75c-.3,0-.43.13-.43.43v7.31c0,.3.13.43.43.43h8.81c.3,0,.43.13.43.43v2.58c0,.3-.13.43-.43.43h-8.81c-.3,0-.43.13-.43.43v7.74c0,.3.13.43.43.43h10.75c.3,0,.43.13.43.43v2.58c0,.3-.13.43-.43.43Z"/>
      <path class="st11" d="M462.66,482.83h-3.31c-.17,0-.34-.13-.39-.3l-4-11.48c-.04-.17-.17-.26-.34-.26h-4.26c-.3,0-.43.13-.43.43v11.18c0,.3-.13.43-.43.43h-3.01c-.3,0-.43-.13-.43-.43v-26.22c0-.3.13-.43.43-.43h8.6c4.73,0,7.74,3.01,7.74,7.74v.43c0,2.32-2.06,5.03-3.74,5.8-.17.09-.26.17-.26.34,0,.13.17.56.34,1.03l3.57,10.32c.17.52.34.9.34,1.07,0,.21-.13.34-.43.34ZM458.96,463.06c0-2.11-1.76-3.87-3.87-3.87h-4.73c-.3,0-.43.13-.43.43v7.31c0,.3.13.43.43.43h4.73c2.11,0,3.87-1.76,3.87-3.87v-.43Z"/>
      <path class="st11" d="M476.79,483.26h-1.29c-4.73,0-7.74-3.01-7.74-7.31v-13.32c0-4.3,3.01-7.31,7.74-7.31h1.29c4.73,0,7.74,3.01,7.74,7.31v13.32c0,4.3-3.01,7.31-7.74,7.31ZM480.66,462.63c0-2.11-1.76-3.87-3.87-3.87h-1.29c-2.11,0-3.87,1.76-3.87,3.87v13.32c0,2.11,1.76,3.87,3.87,3.87h1.29c2.11,0,3.87-1.76,3.87-3.87v-13.32Z"/>
      <path class="st11" d="M498.03,483.26h-1.81c-3.44,0-5.37-1.38-6.49-3.14-.39-.6-.6-1.03-.6-1.25,0-.17.04-.26.21-.34l2.19-1.12c.22-.13.6-.34.77-.34.13,0,.26.09.34.3.73,1.59,2.15,2.45,3.57,2.45h1.81c2.11,0,3.87-1.76,3.87-3.87,0-2.71-2.49-3.83-5.2-5.07-3.35-1.5-7.09-3.22-7.09-8.25,0-4.3,3.01-7.31,7.74-7.31h.69c3.44,0,5.37,1.42,6.53,3.14.26.39.6.95.6,1.16,0,.17-.09.3-.26.39l-2.32,1.16c-.26.13-.47.26-.64.26-.13,0-.26-.09-.34-.26-.77-1.55-2.15-2.41-3.57-2.41h-.69c-2.11,0-3.87,1.76-3.87,3.87,0,2.49,2.71,3.44,5.59,4.77,3.22,1.46,6.7,3.44,6.7,8.55,0,4.3-3.01,7.31-7.74,7.31Z"/>
      <path class="st11" d="M527.72,482.83h-3.01c-.3,0-.43-.13-.43-.43v-26.22c0-.3.13-.43.43-.43h3.01c.3,0,.43.13.43.43v26.22c0,.3-.13.43-.43.43Z"/>
      <path class="st11" d="M552,482.83h-2.75c-.17,0-.3-.09-.39-.21l-9.15-16.63c-.17-.3-.64-1.2-.77-1.55l-.17.04c.09,1.03.13,6.58.13,9.97v7.95c0,.3-.13.43-.43.43h-3.01c-.3,0-.43-.13-.43-.43v-26.22c0-.3.13-.43.43-.43h2.75c.17,0,.3.09.39.21l9.15,16.68c.13.22.64,1.2.77,1.55l.17-.04c-.09-1.03-.13-6.58-.13-9.97v-7.99c0-.3.13-.43.43-.43h3.01c.3,0,.43.13.43.43v26.22c0,.3-.13.43-.43.43Z"/>
      <path class="st11" d="M571.99,459.19h-4.94c-.3,0-.43.13-.43.43v22.78c0,.3-.13.43-.43.43h-3.01c-.3,0-.43-.13-.43-.43v-22.78c0-.3-.13-.43-.43-.43h-4.94c-.3,0-.43-.13-.43-.43v-2.58c0-.3.13-.43.43-.43h14.61c.3,0,.43.13.43.43v2.58c0,.3-.13.43-.43.43Z"/>
      <path class="st11" d="M591.11,482.83h-14.61c-.3,0-.43-.13-.43-.43v-26.22c0-.3.13-.43.43-.43h14.61c.3,0,.43.13.43.43v2.58c0,.3-.13.43-.43.43h-10.75c-.3,0-.43.13-.43.43v7.31c0,.3.13.43.43.43h8.81c.3,0,.43.13.43.43v2.58c0,.3-.13.43-.43.43h-8.81c-.3,0-.43.13-.43.43v7.74c0,.3.13.43.43.43h10.75c.3,0,.43.13.43.43v2.58c0,.3-.13.43-.43.43Z"/>
      <path class="st11" d="M613.16,460.01l-2.23,1.12c-.26.13-.56.3-.73.3-.13,0-.26-.09-.34-.26-.77-1.55-2.15-2.41-3.57-2.41h-2.06c-2.11,0-3.87,1.76-3.87,3.87v13.32c0,2.11,1.76,3.87,3.87,3.87h1.29c2.11,0,3.87-1.76,3.87-3.87v-2.79c0-.3-.13-.43-.43-.43h-4.3c-.3,0-.43-.13-.43-.43v-2.58c0-.3.13-.43.43-.43h8.17c.3,0,.43.13.43.43v6.23c0,4.3-3.01,7.31-7.74,7.31h-1.29c-4.73,0-7.74-3.01-7.74-7.31v-13.32c0-4.3,3.01-7.31,7.74-7.31h2.06c3.05,0,4.9,1.12,6.1,2.58.6.77,1.03,1.55,1.03,1.72s-.09.3-.26.39Z"/>
      <path class="st11" d="M636.07,482.83h-3.31c-.17,0-.34-.13-.39-.3l-4-11.48c-.04-.17-.17-.26-.34-.26h-4.26c-.3,0-.43.13-.43.43v11.18c0,.3-.13.43-.43.43h-3.01c-.3,0-.43-.13-.43-.43v-26.22c0-.3.13-.43.43-.43h8.6c4.73,0,7.74,3.01,7.74,7.74v.43c0,2.32-2.06,5.03-3.74,5.8-.17.09-.26.17-.26.34,0,.13.17.56.34,1.03l3.57,10.32c.17.52.34.9.34,1.07,0,.21-.13.34-.43.34ZM632.37,463.06c0-2.11-1.76-3.87-3.87-3.87h-4.73c-.3,0-.43.13-.43.43v7.31c0,.3.13.43.43.43h4.73c2.11,0,3.87-1.76,3.87-3.87v-.43Z"/>
      <path class="st11" d="M657.43,482.83h-3.22c-.21,0-.39-.09-.43-.3l-1.59-5.67c-.04-.21-.21-.26-.43-.26h-6.96c-.21,0-.39.04-.43.26l-1.59,5.67c-.04.22-.21.3-.43.3h-3.22c-.3,0-.47-.13-.47-.34,0-.17.21-.82.43-1.46l7.61-24.97c.04-.21.21-.3.43-.3h2.32c.21,0,.39.09.43.3l7.65,25.1c.17.52.39,1.16.39,1.33,0,.21-.17.34-.47.34ZM650.72,471.79l-1.85-7.26c-.09-.34-.43-1.55-.52-1.89h-.17c-.09.34-.43,1.63-.52,1.93l-1.85,7.05c-.13.52-.3.95-.3,1.16s.17.39.47.39h4.51c.3,0,.47-.17.47-.39,0-.17-.13-.52-.26-.99Z"/>
      <path class="st11" d="M676.64,482.83h-14.61c-.3,0-.43-.13-.43-.43v-26.22c0-.3.13-.43.43-.43h3.01c.3,0,.43.13.43.43v22.78c0,.3.13.43.43.43h10.75c.3,0,.43.13.43.43v2.58c0,.3-.13.43-.43.43Z"/>
      <path class="st11" d="M695.76,482.83h-14.61c-.3,0-.43-.13-.43-.43v-26.22c0-.3.13-.43.43-.43h14.61c.3,0,.43.13.43.43v2.58c0,.3-.13.43-.43.43h-10.75c-.3,0-.43.13-.43.43v7.31c0,.3.13.43.43.43h8.81c.3,0,.43.13.43.43v2.58c0,.3-.13.43-.43.43h-8.81c-.3,0-.43.13-.43.43v7.74c0,.3.13.43.43.43h10.75c.3,0,.43.13.43.43v2.58c0,.3-.13.43-.43.43Z"/>
      <path class="st11" d="M709.04,483.26h-1.81c-3.44,0-5.37-1.38-6.49-3.14-.39-.6-.6-1.03-.6-1.25,0-.17.04-.26.21-.34l2.19-1.12c.21-.13.6-.34.77-.34.13,0,.26.09.34.3.73,1.59,2.15,2.45,3.57,2.45h1.81c2.11,0,3.87-1.76,3.87-3.87,0-2.71-2.49-3.83-5.2-5.07-3.35-1.5-7.09-3.22-7.09-8.25,0-4.3,3.01-7.31,7.74-7.31h.69c3.44,0,5.37,1.42,6.53,3.14.26.39.6.95.6,1.16,0,.17-.09.3-.26.39l-2.32,1.16c-.26.13-.47.26-.64.26-.13,0-.26-.09-.34-.26-.77-1.55-2.15-2.41-3.57-2.41h-.69c-2.11,0-3.87,1.76-3.87,3.87,0,2.49,2.71,3.44,5.59,4.77,3.22,1.46,6.7,3.44,6.7,8.55,0,4.3-3.01,7.31-7.74,7.31Z"/>
    </g>
    <g>
      <g>
        <path class="st8" d="M501.92,349.18c-.54,0-.93.26-1.2.79l-20.2,47.75c-.67,1.6-1.47,3.89-1.75,5.35h-.38c-.28-1.46-1.08-4.15-1.62-5.35l-20.19-47.75c-.27-.53-.66-.79-1.2-.79h-8.55c-.74,0-1.34.6-1.34,1.34v81.42c0,.82.67,1.49,1.49,1.49h9.04c.83,0,1.5-.68,1.49-1.51-.16-8.61-.94-51.23-1.19-54.13l.55-.13c.53,2,1.86,6.41,3.2,9.35l15.1,33.57c.27.55.67.82,1.2.82h4.57c.52,0,.92-.27,1.2-.82l15.1-33.57c1.34-3.07,2.68-7.35,3.21-9.35l.55.13c-.27,3.23-1.2,20.47-1.2,31.03v23.28c0,.93.37,1.33,1.34,1.33h9.36c.73,0,1.33-.6,1.33-1.33v-81.58c0-.95-.41-1.34-1.33-1.34h-8.56Z"/>
        <path class="st7" d="M527.35,349.18c-.94,0-1.35.39-1.35,1.34v81.58c0,.93.41,1.33,1.35,1.33h45.46c.94,0,1.35-.4,1.35-1.33v-8.03c0-.94-.41-1.35-1.35-1.35h-33.43c-.94,0-1.32-.39-1.32-1.32v-24.06c0-.96.38-1.35,1.32-1.35h27.41c.93,0,1.34-.4,1.34-1.33v-8.02c0-.96-.41-1.34-1.34-1.34h-27.41c-.94,0-1.32-.4-1.32-1.35v-22.73c0-.94.38-1.34,1.32-1.34h33.43c.94,0,1.35-.41,1.35-1.34v-8.02c0-.95-.41-1.34-1.35-1.34h-45.46Z"/>
        <path class="st5" d="M631.81,349.18c-.91,0-1.32.39-1.32,1.34v24.88c0,10.55.15,27.81.41,31.02l-.55.13c-.41-1.07-1.99-4.15-2.4-4.81l-28.5-51.9c-.26-.39-.65-.66-1.2-.66h-8.56c-.93,0-1.34.39-1.34,1.34v81.58c0,.93.41,1.33,1.34,1.33h9.35c.96,0,1.35-.4,1.35-1.33v-24.74c0-10.56-.14-27.82-.4-31.03l.52-.13c.4,1.08,1.88,3.87,2.41,4.82l28.49,51.74c.27.4.67.67,1.21.67h8.55c.94,0,1.34-.4,1.34-1.33v-81.58c0-.95-.4-1.34-1.34-1.34h-9.38Z"/>
        <path class="st6" d="M658.57,432.94l20.47-34.33c.05-.08.08-.17.11-.26l5.74-21.78c.24-.93,1.33-4.94,1.58-6.01h.53c.28,1.07,1.35,4.8,1.62,5.88l10.27,38.36,4.96,17.65c.14.66.68.94,1.34.94h10.03c.93,0,1.47-.41,1.47-1.09,0-.53-.67-2.53-1.2-4.13l-23.81-78.07c-.13-.66-.66-.93-1.32-.93h-7.23c-.67,0-1.21.26-1.33.93l-25.04,82.04c-.34,1.12,1.2,1.81,1.81.8Z"/>
      </g>
      <g>
        <path class="st11" d="M173.25,433.43h-45.48c-.94,0-1.34-.4-1.34-1.33v-81.58c0-.95.39-1.34,1.34-1.34h9.36c.94,0,1.34.39,1.34,1.34v70.88c0,.93.4,1.32,1.35,1.32h33.43c.93,0,1.32.41,1.32,1.36v8.02c0,.93-.39,1.33-1.32,1.33"/>
        <path class="st11" d="M216.84,434.77h-4.02c-14.71,0-24.06-9.36-24.06-22.74v-41.45c0-13.37,9.36-22.74,24.06-22.74h4.02c14.69,0,24.06,9.37,24.06,22.74v41.45c0,13.38-9.36,22.74-24.06,22.74M228.86,370.58c0-6.57-5.47-12.05-12.02-12.05h-4.02c-6.56,0-12.04,5.47-12.04,12.05v41.45c0,6.55,5.49,12.04,12.04,12.04h4.02c6.54,0,12.02-5.49,12.02-12.04v-41.45Z"/>
        <path class="st11" d="M283.16,395.98h-14.71c-.93,0-1.34.4-1.34,1.35v34.76c0,.93-.41,1.33-1.32,1.33h-9.37c-.95,0-1.34-.4-1.34-1.33v-81.58c0-.95.39-1.34,1.34-1.34h26.74c14.71,0,24.06,9.49,24.06,24.06,0,12.97-9.36,22.74-24.06,22.74M295.21,371.91c0-6.55-5.5-12.03-12.05-12.03h-14.71c-.93,0-1.34.4-1.34,1.34v22.73c0,.94.4,1.35,1.34,1.35h14.71c6.55,0,12.05-5.49,12.05-12.05v-1.33Z"/>
        <path class="st11" d="M368.32,433.43h-45.48c-.93,0-1.32-.4-1.32-1.33v-81.58c0-.95.39-1.34,1.32-1.34h45.48c.93,0,1.33.39,1.33,1.34v8.02c0,.93-.4,1.34-1.33,1.34h-33.44c-.94,0-1.34.4-1.34,1.34v22.73c0,.94.39,1.35,1.34,1.35h27.41c.94,0,1.35.39,1.35,1.34v8.02c0,.93-.41,1.33-1.35,1.33h-27.41c-.94,0-1.34.4-1.34,1.35v24.06c0,.93.39,1.32,1.34,1.32h33.44c.93,0,1.33.41,1.33,1.36v8.02c0,.93-.4,1.33-1.33,1.33"/>
        <path class="st11" d="M431.29,432.15c0,.7-.57,1.28-1.28,1.28h-47c-.94,0-1.34-.4-1.34-1.07,0-.54.52-1.61,1.2-3.2l29.43-65.67c.52-1.08.92-2.03.92-2.55,0-.66-.4-1.06-1.32-1.06h-26.75c-.74,0-1.34-.6-1.34-1.34v-8.02c0-.74.6-1.34,1.34-1.34h44.8c.94,0,1.34.39,1.34,1.06s-.53,1.74-1.21,3.22l-29.41,65.26c-.67,1.62-1.08,2.27-1.08,2.94s.41,1.06,1.34,1.06h29.08c.7,0,1.28.57,1.28,1.28v8.16Z"/>
      </g>
      <polygon class="st10" points="670.62 432.56 706.9 399.06 680.11 399.06 670.62 432.56"/>
    </g>
  </g>
</svg>